<svg width="210" height="130" viewBox="0 0 210 130" fill="none" xmlns="http://www.w3.org/2000/svg">
<rect width="210" height="130" fill="#FDF9F8"/>
<g clip-path="url(#clip0_179_1112)">
<path fill-rule="evenodd" clip-rule="evenodd" d="M57.5141 74.3979L54.9012 77.0109C56.9567 78.2128 59.3432 78.8922 61.9039 78.8922C64.4472 78.8922 66.8511 78.2128 68.9066 77.0109L66.2937 74.3979C64.9698 75.025 63.4717 75.3734 61.9039 75.3734C60.3361 75.356 58.8555 75.0076 57.5141 74.3979ZM48.3862 49L55.9289 56.5427C52.4276 59.0163 50.8076 63.4061 51.8527 67.552C52.0095 68.1965 52.236 68.8062 52.5147 69.3985L49.9017 72.0114C49.5882 71.4714 49.3095 70.914 49.0656 70.3391C47.1668 65.7578 47.881 60.4447 50.9121 56.5253L48.4036 54.0169C43.2126 60.3751 43.2126 69.6598 48.4036 76.018C52.8979 71.5237 57.4096 67.012 61.9039 62.5177C66.3982 67.012 70.9099 71.5237 75.4042 76.018C80.5952 69.6598 80.5952 60.3751 75.4042 54.0169L72.8957 56.5253C75.9442 60.4622 76.641 65.7578 74.7248 70.3391C74.4809 70.914 74.2022 71.4714 73.8887 72.0114L71.2757 69.3985C71.5544 68.8062 71.7635 68.1965 71.9377 67.552C72.9828 63.3887 71.3628 59.0163 67.8614 56.5427L75.4216 49C85.2463 57.2918 85.316 72.656 75.4216 81.0174C70.9099 76.5057 66.4156 72.0114 61.9039 67.4997C57.3922 72.0114 52.8979 76.5057 48.3862 81.0174C38.4918 72.6734 38.5789 57.2918 48.3862 49Z" fill="#29313D" fill-opacity="0.8"/>
<path d="M98.3112 69.712C96.6389 65.0261 94.9143 60.3924 93.1201 55.7762C93.7646 55.7936 94.3047 55.7936 94.7053 55.7936C95.1582 55.7936 95.6808 55.7936 96.2905 55.7762L99.1473 64.2248L100.349 67.5519C100.611 67.0468 100.994 66.2455 101.516 65.1306C102.039 64.0157 102.405 63.197 102.631 62.6744C102.318 61.7163 101.917 60.5666 101.447 59.2079C100.976 57.8492 100.541 56.7169 100.193 55.7762C100.767 55.7936 101.273 55.7936 101.708 55.7936C102.196 55.7936 102.701 55.7936 103.224 55.7762C103.537 57.013 103.903 58.2324 104.286 59.4343C104.861 58.1975 105.384 56.9782 105.854 55.7762C106.446 55.7936 106.917 55.7936 107.282 55.7936C107.7 55.7936 108.171 55.7936 108.711 55.7762C108.275 56.6472 107.735 57.7621 107.091 59.1208C106.446 60.4795 105.924 61.6118 105.54 62.5002C105.697 62.988 105.976 63.8241 106.377 64.9912C106.795 66.1584 107.091 66.9945 107.282 67.4648L110.017 61.6292L112.003 57.2569L112.648 55.7588C113.31 55.7762 113.832 55.7762 114.215 55.7762C114.651 55.7762 115.173 55.7762 115.801 55.7588L113.884 59.5737L109.878 67.7958L108.972 69.6946C108.24 69.6771 107.613 69.6771 107.108 69.6771C106.568 69.6771 105.941 69.6771 105.227 69.6946C104.826 68.3184 104.373 66.9771 103.903 65.6532C103.258 66.9771 102.649 68.3184 102.074 69.6946C101.342 69.6771 100.715 69.6771 100.193 69.6771C99.6351 69.6946 99.008 69.712 98.3112 69.712Z" fill="#29313D" fill-opacity="0.8"/>
<path d="M116.846 61.6118C116.933 61.124 117.002 60.7756 117.02 60.584C117.037 60.3924 117.089 60.0789 117.142 59.6782C118.065 59.4692 118.884 59.3124 119.598 59.2253C120.312 59.1382 120.991 59.0859 121.653 59.0859C122.402 59.0859 123.082 59.173 123.709 59.3472C124.336 59.5214 124.824 59.8001 125.172 60.1834C125.521 60.5666 125.695 61.1066 125.695 61.8208C125.695 62.2041 125.643 63.197 125.538 64.7822C125.433 66.3674 125.364 68.0048 125.346 69.712C124.824 69.6945 124.353 69.6945 123.918 69.6945C123.5 69.6945 123.012 69.6945 122.455 69.712C122.542 68.8932 122.611 67.9351 122.664 66.8551L122.803 64.3118C122.542 64.486 122.35 64.608 122.211 64.6777C122.071 64.7473 121.915 64.817 121.758 64.8693C121.584 64.9215 121.288 65.0086 120.852 65.1306C120.417 65.2525 120.086 65.357 119.824 65.4441C119.563 65.5312 119.337 65.6357 119.128 65.7403C118.919 65.8448 118.744 65.9841 118.605 66.1235C118.466 66.2629 118.361 66.4022 118.291 66.559C118.222 66.7158 118.187 66.8725 118.187 67.0467C118.187 67.3255 118.274 67.5868 118.431 67.7784C118.588 67.97 118.814 68.1268 119.058 68.2139C119.302 68.301 119.598 68.3358 119.946 68.3358C120.155 68.3358 120.399 68.3184 120.643 68.2835C120.887 68.2487 121.218 68.1616 121.619 68.0222C121.479 68.4055 121.305 68.9803 121.113 69.7642C120.626 69.8513 120.242 69.9036 119.964 69.921C119.685 69.9384 119.406 69.9558 119.162 69.9558C118.309 69.9558 117.595 69.8339 117.055 69.6074C116.515 69.381 116.097 69.0152 115.835 68.51C115.574 68.0048 115.435 67.4997 115.435 66.9945C115.435 66.6983 115.487 66.4196 115.591 66.1235C115.696 65.8274 115.835 65.5835 116.044 65.3396C116.253 65.0957 116.497 64.8693 116.811 64.6428C117.124 64.4164 117.577 64.2073 118.169 63.9983C118.762 63.7893 119.546 63.5802 120.521 63.3712C120.782 63.3189 121.044 63.2492 121.322 63.1796C121.601 63.1099 121.828 63.0228 121.984 62.9531C122.141 62.8834 122.298 62.7789 122.42 62.657C122.542 62.535 122.629 62.4131 122.699 62.2912C122.768 62.1692 122.786 62.0299 122.786 61.8905C122.786 61.6292 122.699 61.4028 122.524 61.2111C122.35 61.0195 122.124 60.8976 121.845 60.8279C121.566 60.7582 121.27 60.7234 120.939 60.7234C119.72 60.7234 118.344 61.0195 116.846 61.6118Z" fill="#29313D" fill-opacity="0.8"/>
<path d="M127.663 74.398C127.837 72.4993 127.994 70.0431 128.116 67.0121C128.255 63.9985 128.325 61.5423 128.325 59.6609C129.614 59.4345 130.624 59.2777 131.321 59.208C132.035 59.1384 132.732 59.1035 133.429 59.1035C134.352 59.1035 135.188 59.208 135.955 59.4345C136.721 59.6435 137.331 60.0093 137.784 60.5319C138.237 61.0545 138.585 61.6294 138.812 62.3087C139.038 62.9881 139.143 63.6849 139.143 64.4165C139.143 65.1656 139.038 65.8798 138.829 66.5591C138.62 67.2385 138.289 67.8656 137.854 68.4056C137.418 68.9457 136.913 69.3463 136.338 69.6076C135.763 69.8515 135.136 69.9734 134.457 69.9734C134.056 69.9734 133.655 69.9212 133.272 69.8341C132.889 69.747 132.541 69.6076 132.244 69.4508C131.948 69.294 131.704 69.1373 131.513 68.9805C131.321 68.8237 131.077 68.5798 130.781 68.2663L130.624 72.7083L130.642 73.3877C130.642 73.4748 130.624 73.8232 130.624 74.4154C129.997 74.4154 129.51 74.398 129.179 74.398H127.663ZM131.147 61.5423C131.095 61.9081 131.06 62.2216 131.043 62.4829L130.973 63.6152C130.938 64.103 130.938 64.4688 130.938 64.6952C130.938 65.1133 130.973 65.514 131.06 65.8798C131.147 66.263 131.321 66.6114 131.565 66.925C131.809 67.2385 132.123 67.4824 132.471 67.6566C132.819 67.8308 133.185 67.9005 133.551 67.9005C134.074 67.9005 134.544 67.7611 134.962 67.465C135.38 67.1688 135.711 66.7333 135.955 66.1585C136.199 65.5836 136.303 64.974 136.303 64.3294C136.303 63.6152 136.181 63.0055 135.92 62.5178C135.659 62.03 135.328 61.6642 134.892 61.4378C134.457 61.2113 133.969 61.1068 133.429 61.1068C132.75 61.1416 131.966 61.2636 131.147 61.5423Z" fill="#29313D" fill-opacity="0.8"/>
<path d="M140.902 69.7123L141.111 67.0645L141.338 61.9779L141.442 57.623C141.46 56.8391 141.46 56.2294 141.46 55.7939C142.174 55.8114 142.679 55.8114 142.975 55.8114C143.324 55.8114 143.794 55.8114 144.369 55.7939L144.16 59.1037L143.916 64.3993L143.811 68.3536L143.794 69.7297C143.184 69.7123 142.714 69.7123 142.366 69.7123C142 69.6949 141.512 69.7123 140.902 69.7123ZM144.16 63.9115L146.233 61.3857C146.407 61.1766 146.616 60.8979 146.86 60.5844C147.104 60.2708 147.417 59.8527 147.801 59.3476C148.515 59.365 149.02 59.365 149.351 59.365C149.804 59.365 150.361 59.365 151.058 59.3476L147.696 63.1973L147.086 63.9289C147.592 64.7128 148.968 66.6464 151.232 69.7297C150.623 69.7123 150.1 69.7123 149.664 69.7123C149.229 69.7123 148.689 69.7123 148.044 69.7297C147.644 69.0852 147.33 68.5626 147.086 68.1794C146.842 67.7961 146.616 67.4477 146.39 67.1516L144.648 64.678C144.595 64.5909 144.421 64.3296 144.16 63.9115Z" fill="#29313D" fill-opacity="0.8"/>
<path d="M152.382 69.7122C152.486 68.6844 152.556 67.8308 152.591 67.1515C152.661 66.0715 152.713 64.7998 152.765 63.3888C152.817 61.9778 152.852 60.6191 152.87 59.33C153.532 59.3474 154.037 59.3474 154.368 59.3474C154.664 59.3474 155.169 59.3474 155.848 59.33C155.761 60.5146 155.674 61.6468 155.622 62.7269C155.587 63.8069 155.535 65.0263 155.517 66.4198C155.5 67.8134 155.483 68.9109 155.483 69.7122C154.855 69.6948 154.368 69.6948 153.984 69.6948C153.636 69.6948 153.096 69.7122 152.382 69.7122ZM152.939 57.5532C152.974 56.8564 152.974 56.3164 152.974 55.9332V55.6196C153.601 55.637 154.089 55.637 154.49 55.637C155.012 55.637 155.517 55.637 155.97 55.6196C155.953 55.7938 155.935 55.9854 155.935 56.1945L155.883 57.5532C155.361 57.5358 154.89 57.5358 154.455 57.5358C154.019 57.5358 153.514 57.5532 152.939 57.5532Z" fill="#29313D" fill-opacity="0.8"/>
<path d="M168.495 69.7122C167.903 69.6948 167.433 69.6948 167.119 69.6948C166.718 69.6948 166.265 69.6948 165.743 69.7122L165.76 68.0225C165.569 68.3012 165.394 68.5451 165.255 68.7193C165.116 68.8935 164.924 69.0677 164.698 69.2245C164.471 69.3812 164.21 69.5206 163.949 69.6251C163.687 69.7296 163.374 69.7993 163.008 69.869C162.66 69.9387 162.294 69.9735 161.893 69.9735C161.127 69.9735 160.465 69.869 159.907 69.6425C159.35 69.4161 158.897 69.0851 158.566 68.6322C158.235 68.1793 158.078 67.5348 158.078 66.6986V66.4896L158.235 63.8592L158.392 60.3927C158.392 60.114 158.409 59.7656 158.409 59.3475C159.054 59.3649 159.559 59.3649 159.925 59.3649C160.308 59.3649 160.778 59.3649 161.336 59.3475L161.005 63.9986C160.987 64.3644 160.97 64.6605 160.952 64.9044C160.935 65.1483 160.935 65.3399 160.935 65.4444C160.935 65.9321 161.005 66.3328 161.161 66.6638C161.318 66.9947 161.562 67.2386 161.928 67.3954C162.294 67.5696 162.677 67.6567 163.095 67.6567C163.496 67.6567 163.861 67.587 164.21 67.4302C164.523 67.2909 164.802 67.0993 165.029 66.8554C165.255 66.6115 165.447 66.2805 165.603 65.8625C165.725 65.5663 165.812 65.1483 165.865 64.6257C165.917 64.2599 165.952 63.6153 166.004 62.6921C166.056 61.5946 166.091 60.4624 166.126 59.3301C166.805 59.3475 167.311 59.3475 167.676 59.3475C168.077 59.3475 168.53 59.3475 169.035 59.3301C168.948 60.3056 168.861 61.525 168.774 62.9708C168.687 64.4166 168.617 65.636 168.6 66.5767C168.53 67.5522 168.513 68.5799 168.495 69.7122Z" fill="#29313D" fill-opacity="0.8"/>
</g>
<defs>
<clipPath id="clip0_179_1112">
<rect width="128" height="32.0174" fill="white" transform="translate(41 49)"/>
</clipPath>
</defs>
</svg>
