<svg width="210" height="130" viewBox="0 0 210 130" fill="none" xmlns="http://www.w3.org/2000/svg">
<rect width="210" height="130" fill="#FDF9F8"/>
<g clip-path="url(#clip0_179_1099)">
<path d="M80.9742 63.8908C82.6974 63.8908 84.0795 65.2729 84.0795 66.9961C84.0795 68.7193 82.6974 70.1014 80.9742 70.1014C79.251 70.1014 77.8689 68.7193 77.8689 66.9961C77.8689 66.4217 78.0304 65.8652 78.2997 65.3985L74.4943 59.1879C74.4225 59.1879 74.3507 59.1879 74.2789 59.1879C74.1533 59.1879 74.0456 59.1879 73.9199 59.17L67.458 68.6654C67.6913 69.0962 67.817 69.5988 67.817 70.1193C67.817 71.8425 66.4349 73.2247 64.7117 73.2247C62.9885 73.2247 61.6064 71.8425 61.6064 70.1193C61.6064 69.6885 61.6961 69.2936 61.8397 68.9167L57.4061 63.5677C57.2087 63.6215 56.9933 63.6395 56.7779 63.6395C56.6881 63.6395 56.5804 63.6395 56.4907 63.6215L46.8157 78.5557C47.067 79.0045 47.2106 79.525 47.2106 80.0815C47.2106 81.8047 45.8105 83.1868 44.1053 83.1868C42.4001 83.1868 41 81.8047 41 80.0815C41 78.3583 42.4001 76.9762 44.1053 76.9762C44.1951 76.9762 44.3028 76.9762 44.3925 76.9941L54.0675 62.0599C53.8162 61.6111 53.6726 61.0906 53.6726 60.5341C53.6726 58.811 55.0547 57.4288 56.7779 57.4288C58.5011 57.4288 59.8832 58.811 59.8832 60.5341C59.8832 60.9649 59.7934 61.3598 59.6498 61.7368L64.0834 67.1038C64.2988 67.0679 64.5142 67.032 64.7296 67.032C64.8553 67.032 64.963 67.032 65.0886 67.0499L71.5506 57.5545C71.3172 57.1237 71.1916 56.6211 71.1916 56.1005C71.1916 54.3774 72.5737 52.9952 74.2969 52.9952C76.0201 52.9952 77.4022 54.3774 77.4022 56.1005C77.4022 56.6749 77.2406 57.2314 76.9714 57.6981L80.7947 63.9087C80.8306 63.8908 80.9024 63.8908 80.9742 63.8908ZM74.7277 71.2861C75.0508 70.5501 75.8944 70.227 76.6303 70.5501C77.3663 70.8732 77.6894 71.7169 77.3663 72.4528C75.9303 75.6838 73.5968 78.4121 70.6531 80.3148C67.817 82.1637 64.4245 83.2406 60.7807 83.2406C58.86 83.2406 57.0112 82.9355 55.2521 82.3791C53.4392 81.8047 51.7699 80.9431 50.2621 79.8661C49.6159 79.3994 49.4544 78.5019 49.921 77.8557C50.3877 77.2095 51.2852 77.048 51.9314 77.5147C53.2059 78.4301 54.6239 79.1481 56.1317 79.6327C57.5856 80.0994 59.1472 80.3507 60.7807 80.3507C63.8501 80.3507 66.7041 79.4532 69.0914 77.8916C71.5506 76.2941 73.525 73.9965 74.7277 71.2861ZM46.2593 69.7603C46.4926 70.5142 46.0798 71.322 45.3259 71.5733C44.572 71.8066 43.7643 71.3938 43.513 70.6399C43.2258 69.7603 43.0104 68.8449 42.8668 67.9295C42.7232 66.9961 42.6514 66.0627 42.6514 65.1293C42.6514 60.1213 44.6797 55.598 47.9645 52.3131C51.2493 49.0283 55.7727 47 60.7807 47C62.6834 47 64.5322 47.3051 66.2733 47.8436C68.0503 48.4001 69.7197 49.2437 71.2454 50.3207C71.8916 50.7695 72.0532 51.6669 71.5865 52.3311C71.1377 52.9773 70.2402 53.1388 69.5761 52.6721C68.3196 51.7926 66.9195 51.0746 65.3938 50.6079C63.9398 50.1412 62.3962 49.8899 60.7807 49.8899C56.5804 49.8899 52.7571 51.5951 50.0108 54.3594C47.2465 57.1237 45.5413 60.929 45.5413 65.1293C45.5413 65.955 45.5951 66.7448 45.7208 67.4807C45.8464 68.2705 46.0259 69.0244 46.2593 69.7603Z" fill="#29313D" fill-opacity="0.8"/>
<path d="M92.3903 58.9724C93.0724 57.8057 94.0058 56.9082 95.1725 56.2441C96.3393 55.5979 97.6317 55.2568 99.0138 55.2568C100.611 55.2568 102.029 55.6517 103.268 56.4236C104.506 57.2134 105.404 58.3083 105.978 59.7443H103.035C102.64 58.9545 102.101 58.3622 101.419 57.9852C100.737 57.5903 99.9292 57.4108 99.0318 57.4108C98.0445 57.4108 97.165 57.6262 96.3752 58.075C95.6033 58.5237 94.993 59.1519 94.5623 59.9956C94.1315 60.8213 93.8981 61.7906 93.8981 62.9035C93.8981 64.0163 94.1135 64.9856 94.5623 65.8113C95.011 66.637 95.6033 67.2832 96.3752 67.7319C97.147 68.1807 98.0266 68.414 99.0318 68.414C99.9292 68.414 100.737 68.2166 101.419 67.8396C102.101 67.4627 102.64 66.8704 103.035 66.0806H105.978C105.422 67.5165 104.524 68.6294 103.268 69.4013C102.029 70.1731 100.611 70.568 99.0138 70.568C97.6137 70.568 96.3213 70.2449 95.1546 69.5808C93.9879 68.9346 93.0724 68.0191 92.3903 66.8524C91.7082 65.6857 91.3672 64.3753 91.3672 62.9035C91.3672 61.4316 91.7082 60.1392 92.3903 58.9724Z" fill="#29313D" fill-opacity="0.8"/>
<path d="M112.727 58.8649C113.319 58.5239 114.037 58.3623 114.845 58.3623V60.9112H114.217C113.248 60.9112 112.53 61.1625 112.027 61.6471C111.525 62.1318 111.291 62.9754 111.291 64.196V70.4425H108.832V58.5598H111.291V60.2829C111.65 59.6726 112.135 59.2059 112.727 58.8649Z" fill="#29313D" fill-opacity="0.8"/>
<path d="M127.895 65.4162H118.83C118.902 66.3675 119.261 67.1214 119.889 67.6958C120.517 68.2702 121.289 68.5574 122.223 68.5574C123.551 68.5574 124.484 68.001 125.023 66.906H127.679C127.32 68.001 126.674 68.8985 125.723 69.5806C124.789 70.2806 123.623 70.6216 122.223 70.6216C121.092 70.6216 120.069 70.3703 119.171 69.8498C118.274 69.3472 117.574 68.6292 117.053 67.6958C116.533 66.7624 116.281 65.7034 116.281 64.4828C116.281 63.2622 116.533 62.1852 117.017 61.2698C117.52 60.3364 118.202 59.6364 119.099 59.1338C119.997 58.6312 121.02 58.3799 122.187 58.3799C123.3 58.3799 124.305 58.6312 125.184 59.1158C126.064 59.6005 126.746 60.2826 127.231 61.1801C127.715 62.0596 127.967 63.0827 127.967 64.2315C127.985 64.6444 127.949 65.0393 127.895 65.4162ZM125.418 63.4238C125.4 62.5263 125.077 61.7903 124.448 61.2518C123.82 60.7134 123.03 60.4262 122.097 60.4262C121.253 60.4262 120.517 60.6954 119.925 61.2339C119.315 61.7724 118.956 62.5083 118.848 63.4238H125.418Z" fill="#29313D" fill-opacity="0.8"/>
<path d="M132.508 69.8502C131.611 69.3476 130.893 68.6296 130.372 67.6962C129.852 66.7628 129.601 65.7038 129.601 64.4832C129.601 63.2805 129.87 62.2036 130.39 61.2702C130.929 60.3368 131.647 59.6188 132.562 59.1162C133.478 58.6136 134.501 58.3623 135.65 58.3623C136.798 58.3623 137.804 58.6136 138.737 59.1162C139.652 59.6188 140.388 60.3368 140.909 61.2702C141.429 62.2036 141.699 63.2805 141.699 64.4832C141.699 65.6858 141.429 66.7628 140.873 67.6962C140.335 68.6296 139.581 69.3476 138.647 69.8681C137.714 70.3707 136.673 70.64 135.542 70.64C134.429 70.622 133.406 70.3707 132.508 69.8502ZM137.319 68.0372C137.875 67.7321 138.324 67.2834 138.665 66.6731C139.006 66.0628 139.186 65.3448 139.186 64.4832C139.186 63.6216 139.024 62.8857 138.683 62.2933C138.36 61.701 137.929 61.2522 137.373 60.9471C136.834 60.6419 136.242 60.4983 135.614 60.4983C134.986 60.4983 134.393 60.6419 133.855 60.9471C133.316 61.2522 132.885 61.701 132.58 62.2933C132.257 62.8857 132.114 63.6216 132.114 64.4832C132.114 65.7576 132.437 66.7449 133.101 67.4449C133.747 68.1449 134.573 68.486 135.56 68.486C136.17 68.486 136.763 68.3424 137.319 68.0372Z" fill="#29313D" fill-opacity="0.8"/>
<path d="M152.63 58.9546C153.366 59.3495 153.94 59.9239 154.371 60.6778C154.784 61.4317 154.999 62.3651 154.999 63.4421V70.4425H152.558V63.8011C152.558 62.7421 152.289 61.9164 151.768 61.3599C151.23 60.7855 150.512 60.5163 149.596 60.5163C148.681 60.5163 147.945 60.8035 147.407 61.3599C146.868 61.9343 146.599 62.7421 146.599 63.8011V70.4425H144.14V58.5598H146.599V59.9239C146.994 59.4393 147.514 59.0623 148.142 58.7752C148.771 58.5059 149.435 58.3623 150.135 58.3623C151.05 58.3623 151.894 58.5598 152.63 58.9546Z" fill="#29313D" fill-opacity="0.8"/>
<path d="M168.91 65.4162H159.846C159.918 66.3675 160.277 67.1214 160.905 67.6958C161.533 68.2702 162.305 68.5574 163.238 68.5574C164.567 68.5574 165.5 68.001 166.038 66.906H168.695C168.336 68.001 167.69 68.8985 166.738 69.5806C165.805 70.2806 164.638 70.6216 163.238 70.6216C162.107 70.6216 161.084 70.3703 160.187 69.8498C159.289 69.3472 158.589 68.6292 158.069 67.6958C157.548 66.7624 157.297 65.7034 157.297 64.4828C157.297 63.2622 157.548 62.1852 158.033 61.2698C158.535 60.3364 159.218 59.6364 160.115 59.1338C161.012 58.6312 162.036 58.3799 163.202 58.3799C164.315 58.3799 165.32 58.6312 166.2 59.1158C167.08 59.6005 167.762 60.2826 168.246 61.1801C168.731 62.0596 168.982 63.0827 168.982 64.2315C169 64.6444 168.964 65.0393 168.91 65.4162ZM166.433 63.4238C166.415 62.5263 166.092 61.7903 165.464 61.2518C164.836 60.7134 164.046 60.4262 163.113 60.4262C162.269 60.4262 161.533 60.6954 160.941 61.2339C160.33 61.7724 159.971 62.5083 159.864 63.4238H166.433Z" fill="#29313D" fill-opacity="0.8"/>
</g>
<defs>
<clipPath id="clip0_179_1099">
<rect width="128" height="36.2406" fill="white" transform="translate(41 47)"/>
</clipPath>
</defs>
</svg>
