<svg width="210" height="130" viewBox="0 0 210 130" fill="none" xmlns="http://www.w3.org/2000/svg">
<rect width="210" height="130" fill="#FDF9F8"/>
<g clip-path="url(#clip0_179_1085)">
<path fill-rule="evenodd" clip-rule="evenodd" d="M55.489 52C55.489 55.0351 53.0351 57.489 50 57.489V61.4928C55.2436 61.4928 59.4928 57.2436 59.4928 52H55.489ZM65.4984 66.194C64.7235 67.2789 63.8582 68.2733 62.9024 69.1903C59.312 71.9025 54.8433 73.5041 50 73.5041V77.482L50.4133 77.5078C56.0831 77.4174 61.3009 75.4801 65.4855 72.2642C69.683 75.4801 74.9008 77.4174 80.5577 77.5078L80.9968 77.4949V73.5041C76.1536 73.5041 71.6849 71.9025 68.0944 69.2032C67.1387 68.2863 66.2733 67.2789 65.4984 66.194ZM65.2659 60.5629C65.3434 60.4208 65.4209 60.2787 65.4984 60.1367C65.5759 60.2787 65.6534 60.4208 65.7309 60.5629C68.7273 65.8969 74.4487 69.5003 80.9968 69.5003V65.4965C73.5447 65.4965 67.5003 59.4522 67.5003 52H63.4965C63.4965 55.0351 62.4891 57.8377 60.8101 60.085C58.3433 63.3784 54.417 65.4965 50 65.4965V69.5003C54.9337 69.5003 59.4024 67.4597 62.5795 64.1663C63.6257 63.0943 64.5298 61.8802 65.2659 60.5629ZM71.504 52C71.504 57.2436 75.7532 61.4928 80.9968 61.4928V57.489C77.9617 57.489 75.5078 55.0351 75.5078 52H71.504Z" fill="#29313D" fill-opacity="0.8"/>
<path d="M100.202 73.62L96.482 67.1623H94.4543V73.62H91.8066V57.4629H97.3861C98.6259 57.4629 99.6721 57.6825 100.537 58.1087C101.403 58.5349 102.036 59.129 102.462 59.8522C102.888 60.5755 103.108 61.3892 103.108 62.2932C103.108 63.3523 102.798 64.308 102.191 65.1604C101.584 66.0258 100.641 66.607 99.3621 66.9169L103.366 73.6071H100.202V73.62ZM94.4672 65.0442H97.399C98.3935 65.0442 99.1426 64.7988 99.6463 64.2951C100.15 63.8043 100.395 63.1327 100.395 62.2932C100.395 61.4537 100.15 60.808 99.6463 60.3301C99.1555 59.8522 98.3935 59.6198 97.3861 59.6198H94.4543V65.0442H94.4672Z" fill="#29313D" fill-opacity="0.8"/>
<path d="M106.646 58.6254C106.323 58.3025 106.155 57.9022 106.155 57.4114C106.155 56.9206 106.323 56.5331 106.646 56.1973C106.969 55.8615 107.369 55.7065 107.86 55.7065C108.325 55.7065 108.725 55.8744 109.048 56.1973C109.371 56.5202 109.539 56.9206 109.539 57.4114C109.539 57.9022 109.371 58.2896 109.048 58.6254C108.725 58.9612 108.325 59.1162 107.86 59.1162C107.369 59.1162 106.969 58.9483 106.646 58.6254ZM109.152 60.8081V73.6201H106.504V60.8081H109.152Z" fill="#29313D" fill-opacity="0.8"/>
<path d="M121.809 61.2344C122.609 61.6477 123.229 62.2676 123.681 63.0942C124.133 63.9208 124.353 64.9024 124.353 66.0648V73.6202H121.731V66.4651C121.731 65.3157 121.447 64.4374 120.866 63.8304C120.297 63.2234 119.51 62.9134 118.515 62.9134C117.521 62.9134 116.733 63.2234 116.152 63.8304C115.57 64.4374 115.273 65.3157 115.273 66.4651V73.6202H112.639V60.8082H115.286V62.2676C115.725 61.7381 116.281 61.3248 116.952 61.0407C117.624 60.7565 118.347 60.6016 119.109 60.6016C120.104 60.6016 121.008 60.8082 121.809 61.2344Z" fill="#29313D" fill-opacity="0.8"/>
<path d="M133.097 62.9778H130.721V73.6201H128.047V62.9778H126.536V60.8081H128.047V59.904C128.047 58.4316 128.435 57.3597 129.223 56.6881C130.01 56.0165 131.237 55.6807 132.903 55.6807V57.8892C132.103 57.8892 131.534 58.0442 131.211 58.3412C130.889 58.6383 130.721 59.1678 130.721 59.904V60.8081H133.097V62.9778Z" fill="#29313D" fill-opacity="0.8"/>
<path d="M135.37 63.74C135.899 62.7455 136.636 61.9706 137.553 61.4281C138.47 60.8857 139.49 60.6016 140.614 60.6016C141.621 60.6016 142.499 60.7953 143.248 61.1957C143.997 61.596 144.604 62.0868 145.056 62.668V60.8082H147.73V73.6202H145.056V71.7088C144.604 72.3158 143.997 72.8195 143.222 73.2199C142.447 73.6202 141.569 73.8269 140.575 73.8269C139.477 73.8269 138.47 73.5427 137.553 72.9745C136.636 72.4062 135.912 71.6184 135.383 70.598C134.853 69.5777 134.582 68.4283 134.582 67.1496C134.582 65.871 134.827 64.7345 135.37 63.74ZM144.501 64.9024C144.139 64.2566 143.662 63.7529 143.067 63.4171C142.473 63.0813 141.84 62.9005 141.156 62.9005C140.471 62.9005 139.839 63.0684 139.244 63.4042C138.663 63.74 138.198 64.2179 137.824 64.8636C137.462 65.5094 137.281 66.2714 137.281 67.1496C137.281 68.0279 137.462 68.8028 137.824 69.4744C138.185 70.146 138.663 70.6497 139.27 70.9984C139.877 71.3471 140.497 71.515 141.169 71.515C141.853 71.515 142.486 71.3471 143.08 70.9984C143.674 70.6626 144.152 70.1589 144.514 69.5002C144.876 68.8416 145.056 68.0666 145.056 67.1884C145.043 66.3231 144.863 65.5481 144.501 64.9024Z" fill="#29313D" fill-opacity="0.8"/>
<path d="M153.852 56.417V73.6202H151.204V56.417H153.852Z" fill="#29313D" fill-opacity="0.8"/>
<path d="M159.999 56.417V73.6202H157.352V56.417H159.999Z" fill="#29313D" fill-opacity="0.8"/>
</g>
<defs>
<clipPath id="clip0_179_1085">
<rect width="110" height="25.4949" fill="white" transform="translate(50 52)"/>
</clipPath>
</defs>
</svg>
