<svg width="210" height="130" viewBox="0 0 210 130" fill="none" xmlns="http://www.w3.org/2000/svg">
<rect width="210" height="130" fill="#FDF9F8"/>
<g clip-path="url(#clip0_179_1073)">
<path fill-rule="evenodd" clip-rule="evenodd" d="M76.9783 53.377H66.8598V77.5095C66.8598 78.4454 66.101 79.1917 65.1776 79.1917C64.2417 79.1917 63.4955 78.4328 63.4955 77.5095V53.377H53.377V74.1198C53.377 75.0558 54.1106 75.8273 55.0592 75.8273C55.9952 75.8273 56.7414 75.0684 56.7414 74.1451V56.7667H60.1184V74.1451C60.1184 76.9403 57.8544 79.2043 55.0592 79.2043C52.264 79.2043 50 76.9403 50 74.1451V50C60.1184 50 70.2369 50 80.3553 50V74.1325C80.3553 76.9277 78.0913 79.1917 75.2961 79.1917C72.5009 79.1917 70.2369 76.9277 70.2369 74.1325V56.7414H73.6139V74.1198C73.6139 75.0558 74.3728 75.802 75.2961 75.802C76.232 75.802 76.9783 75.0431 76.9783 74.1198V53.377Z" fill="#29313D" fill-opacity="0.8"/>
<path d="M92.8513 55.9951V67.4037C92.8513 68.757 93.2054 69.7815 93.9137 70.4645C94.622 71.1475 95.6212 71.489 96.886 71.489C98.1761 71.489 99.1753 71.1475 99.8836 70.4645C100.592 69.7815 100.946 68.757 100.946 67.4037V55.9951H103.88V67.3531C103.88 68.8076 103.564 70.0471 102.932 71.0589C102.299 72.0708 101.452 72.8297 100.377 73.3229C99.3144 73.8162 98.1382 74.0692 96.8481 74.0692C95.558 74.0692 94.3943 73.8162 93.3319 73.3229C92.2821 72.8297 91.4347 72.0708 90.8276 71.0589C90.2078 70.0471 89.9043 68.8076 89.9043 67.3531V55.9951H92.8513Z" fill="#29313D" fill-opacity="0.8"/>
<path d="M110.647 54.8442V73.8922H107.713V54.8442H110.647Z" fill="#29313D" fill-opacity="0.8"/>
<path d="M114.417 62.9518C115.011 61.8515 115.821 61.004 116.832 60.3843C117.857 59.7772 118.983 59.4736 120.222 59.4736C121.335 59.4736 122.309 59.6887 123.144 60.1313C123.979 60.574 124.636 61.1179 125.142 61.7629V59.7013H128.102V73.8924H125.142V71.7802C124.649 72.4505 123.966 73.007 123.106 73.4497C122.246 73.8924 121.272 74.1201 120.171 74.1201C118.957 74.1201 117.832 73.8039 116.82 73.1841C115.808 72.5517 114.998 71.679 114.417 70.5533C113.822 69.4276 113.531 68.1502 113.531 66.7336C113.531 65.317 113.822 64.0522 114.417 62.9518ZM124.535 64.2419C124.13 63.521 123.599 62.9771 122.954 62.5977C122.296 62.2183 121.601 62.0285 120.842 62.0285C120.083 62.0285 119.387 62.2183 118.73 62.5851C118.072 62.9518 117.553 63.4957 117.149 64.204C116.744 64.9123 116.541 65.7597 116.541 66.7463C116.541 67.7328 116.744 68.5802 117.149 69.3265C117.553 70.06 118.085 70.6292 118.742 71.0086C119.4 71.4007 120.108 71.5905 120.842 71.5905C121.601 71.5905 122.296 71.4007 122.954 71.0213C123.612 70.6419 124.13 70.0853 124.535 69.3644C124.94 68.6308 125.142 67.7834 125.142 66.7968C125.142 65.8103 124.94 64.9629 124.535 64.2419Z" fill="#29313D" fill-opacity="0.8"/>
<path d="M136.942 60.1311C137.815 59.6884 138.776 59.4734 139.839 59.4734C141.091 59.4734 142.229 59.777 143.241 60.3714C144.253 60.9785 145.05 61.826 145.632 62.939C146.213 64.052 146.504 65.3168 146.504 66.7334C146.504 68.15 146.213 69.4274 145.632 70.5531C145.05 71.6788 144.24 72.5515 143.228 73.1839C142.204 73.8163 141.078 74.1199 139.839 74.1199C138.738 74.1199 137.764 73.9048 136.917 73.4748C136.07 73.0448 135.399 72.5009 134.893 71.8306V73.8922H131.959V54.8442H134.893V61.826C135.399 61.1303 136.082 60.5738 136.942 60.1311ZM142.912 64.2038C142.507 63.4955 141.976 62.9516 141.319 62.5848C140.661 62.218 139.953 62.0283 139.194 62.0283C138.46 62.0283 137.752 62.218 137.094 62.5975C136.436 62.9769 135.905 63.5208 135.5 64.2417C135.096 64.9627 134.893 65.8101 134.893 66.7966C134.893 67.7705 135.096 68.6306 135.5 69.3642C135.905 70.0978 136.436 70.6416 137.094 71.0211C137.752 71.4005 138.46 71.5902 139.194 71.5902C139.953 71.5902 140.661 71.4005 141.319 71.0084C141.976 70.6163 142.507 70.0598 142.912 69.3262C143.317 68.5927 143.519 67.7326 143.519 66.746C143.519 65.7595 143.317 64.9121 142.912 64.2038Z" fill="#29313D" fill-opacity="0.8"/>
<path d="M151.563 73.5256C150.678 73.1209 149.982 72.577 149.464 71.8814C148.945 71.1857 148.68 70.4142 148.642 69.5541H151.677C151.728 70.1612 152.019 70.6545 152.537 71.0592C153.056 71.464 153.713 71.6663 154.51 71.6663C155.332 71.6663 155.977 71.5019 156.433 71.1857C156.888 70.8695 157.116 70.4648 157.116 69.9589C157.116 69.4276 156.863 69.0356 156.357 68.7699C155.851 68.517 155.042 68.2261 153.954 67.9225C152.891 67.6316 152.019 67.3407 151.348 67.0751C150.678 66.7968 150.096 66.3795 149.616 65.8103C149.122 65.2411 148.882 64.4949 148.882 63.5716C148.882 62.8127 149.11 62.1297 149.552 61.4973C149.995 60.8649 150.64 60.3716 151.475 60.0175C152.31 59.6634 153.271 59.4736 154.346 59.4736C155.965 59.4736 157.255 59.8784 158.241 60.7005C159.228 61.5226 159.759 62.623 159.822 64.0396H156.888C156.838 63.4072 156.585 62.9013 156.117 62.5218C155.649 62.1424 155.029 61.9526 154.232 61.9526C153.461 61.9526 152.866 62.1044 152.461 62.3953C152.044 62.6862 151.842 63.0783 151.842 63.5589C151.842 63.9384 151.981 64.2546 152.259 64.5076C152.537 64.7605 152.866 64.9629 153.258 65.1147C153.65 65.2664 154.232 65.4435 155.004 65.6712C156.028 65.9494 156.875 66.2277 157.546 66.5059C158.204 66.7842 158.773 67.2016 159.253 67.7581C159.734 68.302 159.987 69.0356 160 69.9462C160 70.7557 159.772 71.4766 159.329 72.109C158.887 72.7414 158.254 73.2473 157.432 73.6015C156.61 73.9556 155.661 74.1454 154.561 74.1454C153.448 74.1201 152.449 73.9303 151.563 73.5256Z" fill="#29313D" fill-opacity="0.8"/>
</g>
<defs>
<clipPath id="clip0_179_1073">
<rect width="110" height="29.1917" fill="white" transform="translate(50 50)"/>
</clipPath>
</defs>
</svg>
