<svg width="210" height="130" viewBox="0 0 210 130" fill="none" xmlns="http://www.w3.org/2000/svg">
<rect width="210" height="130" fill="#FDF9F8"/>
<g clip-path="url(#clip0_179_1059)">
<path fill-rule="evenodd" clip-rule="evenodd" d="M69.8115 62.1523L67.35 64.6138L67.3627 64.7413C67.4137 65.5576 67.3372 66.3611 67.1587 67.1519C66.9801 67.9299 66.6868 68.6951 66.2914 69.3966L66.1638 69.6389L68.6381 71.0674L68.7784 70.825C69.4799 69.5879 69.9263 68.2232 70.1304 66.833C70.3217 65.4428 70.2707 64.0271 69.9391 62.6497L69.8115 62.1523ZM70.8446 54.5253L58.8558 66.5141L46.8669 54.5253L46.6884 54.7549C44.4691 57.3185 43.181 60.456 42.8749 63.6827C42.556 66.9095 43.2192 70.2383 44.89 73.1845L45.0303 73.4269L47.5301 71.9857L47.3771 71.7433C46.2802 69.7919 45.7191 67.6365 45.6808 65.4811C45.6553 63.3129 46.1527 61.1574 47.1985 59.1806L47.2878 59.0147C48.9458 60.6728 50.6039 62.3308 52.2619 63.9761L52.2491 64.0526C52.0578 65.1367 52.1344 66.2463 52.4532 67.2794C52.7721 68.2997 53.346 69.2563 54.124 70.0343L54.2515 70.1618L50.2085 72.4958L50.4381 72.7509C50.7314 73.0825 51.0503 73.4014 51.3819 73.6947C53.5118 75.5823 56.1902 76.5261 58.8685 76.5261C61.5469 76.5261 64.2252 75.5695 66.3424 73.6819C66.674 73.3886 66.9801 73.0825 67.2862 72.7381L67.5158 72.4831L63.4982 70.1618L63.6258 70.0343C64.4038 69.2563 64.965 68.3125 65.2966 67.2794C65.6154 66.2463 65.7047 65.1495 65.5006 64.0526L65.4751 63.9888L70.3982 59.0658L70.462 59.002L71.2782 60.6983L71.2655 60.711L71.3165 60.8768C71.9414 62.6624 72.171 64.55 72.0052 66.3994C71.8394 68.2615 71.291 70.0725 70.3599 71.7306L70.2196 71.9729L72.7194 73.4269L72.8597 73.1845C74.5305 70.2383 75.181 66.9095 74.8749 63.6827C74.556 60.456 73.2679 57.3312 71.0614 54.7549L70.8446 54.5253ZM47.5684 66.8202C47.7725 68.2232 48.2189 69.5879 48.9203 70.8378L49.0606 71.0801L51.5604 69.6389L51.4329 69.3966C51.0375 68.6951 50.7442 67.9299 50.5656 67.1519C50.387 66.3611 50.3233 65.5576 50.3615 64.7413L50.3743 64.6138L47.8745 62.1267L47.7597 62.6114C47.4281 64.0016 47.3643 65.4301 47.5684 66.8202ZM76.6222 63.4404C77.0558 67.6748 75.9972 72.0494 73.3572 75.7098L73.2806 75.8119L69.0845 73.3886L68.9315 73.5672C68.3831 74.2304 67.7964 74.8171 67.1714 75.34C64.7737 77.3296 61.8147 78.3244 58.8558 78.3244C55.8968 78.3244 52.9379 77.3424 50.5401 75.3527C49.9024 74.8298 49.3157 74.2431 48.7673 73.5799L48.6142 73.4014L44.4436 75.8119L44.3671 75.7098C41.7143 72.0367 40.6557 67.662 41.0893 63.4404C41.523 59.2188 43.4488 55.1503 46.7776 52.0893L46.8797 52L58.8685 63.9888L70.8446 52L70.9339 52.0893C74.2627 55.1375 76.1886 59.2188 76.6222 63.4404Z" fill="#29313D" fill-opacity="0.8"/>
<path d="M87.8838 70.6849C87.0293 70.315 86.3533 69.7793 85.8686 69.0906C85.384 68.4019 85.1289 67.5984 85.1289 66.6801H87.9348C87.9986 67.3688 88.2664 67.93 88.7511 68.3764C89.2357 68.8228 89.9117 69.0396 90.779 69.0396C91.6845 69.0396 92.386 68.8228 92.8961 68.3892C93.4063 67.9555 93.6486 67.3943 93.6486 66.7056C93.6486 66.1699 93.4956 65.7363 93.1767 65.3919C92.8579 65.0603 92.4753 64.7925 92.0034 64.6139C91.5315 64.4354 90.8938 64.2313 90.0647 64.0145C89.0189 63.7339 88.1771 63.4533 87.5267 63.1727C86.8762 62.8921 86.3278 62.4458 85.8686 61.8591C85.4095 61.2596 85.1799 60.4689 85.1799 59.474C85.1799 58.5558 85.4095 57.7522 85.8686 57.0635C86.3278 56.3748 86.9655 55.8519 87.7945 55.482C88.6235 55.1122 89.5801 54.9336 90.6642 54.9336C92.2074 54.9336 93.4828 55.3162 94.4649 56.0942C95.447 56.8722 95.9954 57.9308 96.1102 59.27H93.215C93.164 58.6833 92.8961 58.1859 92.386 57.7778C91.8758 57.3696 91.2126 57.1528 90.3836 57.1528C89.6311 57.1528 89.0189 57.3441 88.547 57.7267C88.0751 58.1094 87.8328 58.6578 87.8328 59.3848C87.8328 59.8694 87.9858 60.2776 88.2792 60.5964C88.5725 60.9153 88.9551 61.1576 89.4143 61.3361C89.8734 61.5147 90.4984 61.7188 91.3019 61.9356C92.3605 62.2289 93.215 62.5223 93.8782 62.8029C94.5414 63.0962 95.1154 63.5426 95.5745 64.142C96.0464 64.7415 96.276 65.5577 96.276 66.5653C96.276 67.3816 96.0592 68.1468 95.6255 68.8611C95.1919 69.5753 94.5542 70.162 93.7252 70.5956C92.8961 71.0292 91.9013 71.2461 90.779 71.2461C89.7076 71.2461 88.7383 71.0548 87.8838 70.6849Z" fill="#29313D" fill-opacity="0.8"/>
<path d="M103.813 58.8236C104.579 58.4282 105.446 58.2241 106.402 58.2241C107.499 58.2241 108.507 58.492 109.425 59.0404C110.331 59.5888 111.045 60.3413 111.568 61.3234C112.091 62.3054 112.346 63.4278 112.346 64.7032C112.346 65.9786 112.091 67.1137 111.568 68.1085C111.045 69.1161 110.331 69.8941 109.425 70.4553C108.52 71.0165 107.512 71.2971 106.402 71.2971C105.433 71.2971 104.579 71.1057 103.826 70.7104C103.074 70.315 102.461 69.8303 101.99 69.2564V77.1129H99.375V58.4282H101.99V60.2903C102.449 59.7036 103.048 59.2189 103.813 58.8236ZM109.157 62.433C108.8 61.7953 108.328 61.3106 107.729 60.9918C107.142 60.6602 106.505 60.4943 105.841 60.4943C105.178 60.4943 104.553 60.6602 103.966 61.0045C103.38 61.3489 102.908 61.8335 102.538 62.4712C102.181 63.1089 102.002 63.8742 102.002 64.7415C102.002 65.6087 102.181 66.374 102.538 67.0244C102.895 67.6749 103.367 68.1723 103.966 68.5039C104.553 68.8355 105.178 69.0141 105.841 69.0141C106.517 69.0141 107.142 68.8483 107.729 68.5039C108.316 68.1596 108.788 67.6621 109.157 66.9989C109.514 66.3357 109.693 65.5705 109.693 64.7032C109.693 63.8359 109.514 63.0707 109.157 62.433Z" fill="#29313D" fill-opacity="0.8"/>
<path d="M115.088 56.2726C114.769 55.9537 114.604 55.5583 114.604 55.0737C114.604 54.589 114.769 54.2064 115.088 53.8748C115.407 53.5432 115.802 53.3901 116.287 53.3901C116.746 53.3901 117.142 53.5559 117.46 53.8748C117.779 54.1936 117.945 54.589 117.945 55.0737C117.945 55.5583 117.779 55.9537 117.46 56.2726C117.142 56.5914 116.746 56.7572 116.287 56.7572C115.815 56.7572 115.407 56.5914 115.088 56.2726ZM117.575 58.428V71.0801H114.961V58.428H117.575Z" fill="#29313D" fill-opacity="0.8"/>
<path d="M120.929 61.3234C121.452 60.3413 122.179 59.5761 123.085 59.0404C123.99 58.5047 125.011 58.2241 126.12 58.2241C126.949 58.2241 127.766 58.4027 128.569 58.7598C129.373 59.1169 130.01 59.6016 130.482 60.1882V54.0918H133.122V71.0802H130.482V69.1799C130.049 69.7921 129.462 70.3022 128.697 70.6976C127.944 71.093 127.064 71.2971 126.095 71.2971C124.998 71.2971 123.99 71.0165 123.072 70.4553C122.167 69.8941 121.44 69.1161 120.917 68.1085C120.394 67.101 120.126 65.9658 120.126 64.7032C120.126 63.4405 120.407 62.3054 120.929 61.3234ZM129.959 62.4712C129.602 61.8335 129.13 61.3361 128.544 61.0045C127.957 60.6729 127.332 60.4943 126.656 60.4943C125.98 60.4943 125.355 60.6602 124.768 60.9918C124.182 61.3234 123.723 61.808 123.353 62.433C122.996 63.0707 122.817 63.8232 122.817 64.6904C122.817 65.5577 122.996 66.323 123.353 66.9862C123.71 67.6494 124.182 68.1468 124.781 68.4912C125.381 68.8355 125.993 69.0013 126.656 69.0013C127.332 69.0013 127.957 68.8355 128.544 68.4912C129.13 68.1596 129.602 67.6621 129.959 67.0117C130.316 66.3612 130.495 65.596 130.495 64.7287C130.495 63.8742 130.316 63.1089 129.959 62.4712Z" fill="#29313D" fill-opacity="0.8"/>
<path d="M148.083 65.7363H138.416C138.492 66.7439 138.862 67.5601 139.538 68.1723C140.214 68.7845 141.043 69.0906 142.012 69.0906C143.415 69.0906 144.41 68.5039 144.997 67.3178H147.816C147.433 68.4784 146.744 69.435 145.737 70.1747C144.729 70.9144 143.492 71.2843 142.012 71.2843C140.801 71.2843 139.717 71.0165 138.76 70.468C137.804 69.9196 137.051 69.1544 136.515 68.1723C135.967 67.1902 135.699 66.0424 135.699 64.7415C135.699 63.4405 135.967 62.2927 136.49 61.3106C137.013 60.3285 137.765 59.5633 138.722 59.0276C139.678 58.492 140.775 58.2241 142.012 58.2241C143.211 58.2241 144.27 58.4792 145.201 59.0021C146.132 59.525 146.859 60.252 147.382 61.1958C147.905 62.1396 148.16 63.2237 148.16 64.4481C148.173 64.92 148.147 65.3537 148.083 65.7363ZM145.443 63.6191C145.431 62.6498 145.086 61.8845 144.41 61.2979C143.734 60.7112 142.905 60.4306 141.91 60.4306C141.005 60.4306 140.24 60.7239 139.589 61.2979C138.952 61.8718 138.569 62.6498 138.441 63.6319H145.443V63.6191Z" fill="#29313D" fill-opacity="0.8"/>
<path d="M154.894 58.7598C155.532 58.4027 156.284 58.2241 157.152 58.2241V60.928H156.488C155.468 60.928 154.69 61.1831 154.154 61.706C153.631 62.2289 153.364 63.1344 153.364 64.4099V71.0675H150.749V58.4282H153.364V60.2648C153.746 59.6271 154.256 59.1297 154.894 58.7598Z" fill="#29313D" fill-opacity="0.8"/>
<path d="M161.475 70.7486C160.684 70.3915 160.059 69.8941 159.6 69.2819C159.141 68.657 158.899 67.9682 158.86 67.203H161.564C161.615 67.7387 161.87 68.1851 162.329 68.5422C162.801 68.8993 163.375 69.0778 164.09 69.0778C164.829 69.0778 165.39 68.9376 165.799 68.657C166.207 68.3764 166.411 68.0065 166.411 67.5729C166.411 67.101 166.181 66.7438 165.735 66.5143C165.288 66.2847 164.561 66.0296 163.592 65.7618C162.648 65.5067 161.87 65.2516 161.271 65.0093C160.671 64.767 160.161 64.3843 159.715 63.8869C159.281 63.3768 159.064 62.7136 159.064 61.8845C159.064 61.2086 159.268 60.5964 159.664 60.0352C160.059 59.474 160.633 59.0404 161.373 58.7088C162.113 58.3772 162.967 58.2241 163.936 58.2241C165.378 58.2241 166.538 58.594 167.418 59.3082C168.298 60.0352 168.77 61.03 168.834 62.2799H166.219C166.168 61.7187 165.939 61.2596 165.531 60.928C165.123 60.5964 164.561 60.4178 163.86 60.4178C163.171 60.4178 162.648 60.5454 162.278 60.8132C161.909 61.081 161.73 61.4126 161.73 61.8463C161.73 62.1779 161.858 62.4712 162.1 62.7008C162.342 62.9304 162.648 63.1089 162.993 63.2365C163.35 63.364 163.86 63.5298 164.549 63.7339C165.467 63.9762 166.219 64.2313 166.806 64.4736C167.393 64.7287 167.903 65.0986 168.337 65.5832C168.77 66.0679 168.987 66.7183 169 67.5346C169 68.2488 168.796 68.8993 168.4 69.4605C168.005 70.0216 167.444 70.468 166.717 70.7869C165.99 71.1057 165.135 71.2715 164.153 71.2715C163.158 71.2843 162.266 71.1057 161.475 70.7486Z" fill="#29313D" fill-opacity="0.8"/>
</g>
<defs>
<clipPath id="clip0_179_1059">
<rect width="128" height="26.3244" fill="white" transform="translate(41 52)"/>
</clipPath>
</defs>
</svg>
