<svg width="210" height="130" viewBox="0 0 210 130" fill="none" xmlns="http://www.w3.org/2000/svg">
<rect width="210" height="130" fill="#FDF9F8"/>
<g clip-path="url(#clip0_179_1045)">
<path fill-rule="evenodd" clip-rule="evenodd" d="M40.3251 65.4464L45.4507 60.3207V59.8219H41.248L42.0337 61.1813L39.3898 63.8376L35 56.2178H49.0673V61.8173L44.8397 66.045L45.775 67.6537L49.9653 63.451V63.4759V63.451L54.168 67.6537L55.1033 66.045L50.8756 61.8173V56.2178H64.9305L60.5407 63.8376L57.8968 61.1937L58.6825 59.8344H54.4798V60.3332L59.6054 65.4588C58.059 68.1401 56.5001 70.8338 54.9537 73.5151L49.9653 68.5766L44.9768 73.5026C43.4304 70.8214 41.884 68.1401 40.3251 65.4464Z" fill="#29313D" fill-opacity="0.8"/>
<path d="M95.6464 54.9331L91.269 70.5967H87.5652L84.622 59.4352L81.5416 70.5967L77.8627 70.6217L73.6475 54.9331H77.0146L79.7707 67.1049L82.9633 54.9331H86.4677L89.4732 67.03L92.2543 54.9331H95.6464Z" fill="#29313D" fill-opacity="0.8"/>
<path d="M97.9032 56.1552C97.5291 55.806 97.3545 55.3695 97.3545 54.8457C97.3545 54.3219 97.5416 53.8854 97.9032 53.5363C98.2649 53.1746 98.7263 53 99.275 53C99.8238 53 100.285 53.1746 100.659 53.5238C101.021 53.873 101.208 54.3095 101.208 54.8332C101.208 55.357 101.021 55.7935 100.659 56.1427C100.298 56.4919 99.8362 56.6665 99.275 56.6665C98.7263 56.679 98.2649 56.5044 97.9032 56.1552ZM100.834 58.163V70.5967H97.6912V58.163H100.834Z" fill="#29313D" fill-opacity="0.8"/>
<path d="M103.864 60.9941C104.363 60.0213 105.049 59.2731 105.922 58.7493C106.795 58.2255 107.755 57.9636 108.815 57.9636C109.626 57.9636 110.399 58.1382 111.123 58.4874C111.858 58.8366 112.445 59.3105 112.869 59.8842V53.9854H116.061V70.5968H112.869V68.7511C112.482 69.3622 111.933 69.861 111.235 70.2351C110.536 70.6093 109.713 70.7963 108.791 70.7963C107.743 70.7963 106.783 70.522 105.922 69.9857C105.049 69.4495 104.363 68.6887 103.864 67.7035C103.366 66.7183 103.116 65.5959 103.116 64.3239C103.116 63.0767 103.366 61.9668 103.864 60.9941ZM112.457 62.4158C112.158 61.8671 111.759 61.4555 111.247 61.1562C110.736 60.8694 110.187 60.7197 109.614 60.7197C109.027 60.7197 108.491 60.8569 107.992 61.1437C107.494 61.4306 107.094 61.8421 106.795 62.3908C106.483 62.9396 106.334 63.5881 106.334 64.3363C106.334 65.0846 106.483 65.7331 106.795 66.3067C107.107 66.8679 107.506 67.292 108.005 67.5913C108.504 67.8906 109.04 68.0402 109.614 68.0402C110.2 68.0402 110.748 67.8906 111.247 67.6037C111.759 67.3169 112.158 66.8929 112.457 66.3442C112.756 65.7954 112.906 65.1469 112.906 64.3862C112.906 63.613 112.756 62.9645 112.457 62.4158Z" fill="#29313D" fill-opacity="0.8"/>
<path d="M130.615 65.3216H121.524C121.599 66.2195 121.91 66.9179 122.472 67.4292C123.02 67.9405 123.706 68.1899 124.517 68.1899C125.689 68.1899 126.512 67.6911 127.011 66.6809H130.403C130.042 67.8781 129.356 68.8633 128.333 69.6365C127.31 70.4098 126.063 70.7964 124.579 70.7964C123.382 70.7964 122.31 70.5345 121.362 69.9982C120.414 69.462 119.666 68.7137 119.142 67.7409C118.606 66.7682 118.344 65.6458 118.344 64.3738C118.344 63.0892 118.606 61.9544 119.129 60.9816C119.653 60.0089 120.389 59.2606 121.324 58.7368C122.272 58.2131 123.357 57.9512 124.579 57.9512C125.764 57.9512 126.824 58.2006 127.759 58.7119C128.695 59.2232 129.418 59.9465 129.942 60.8819C130.453 61.8172 130.715 62.8897 130.715 64.0994C130.703 64.5608 130.678 64.9599 130.615 65.3216ZM127.448 63.214C127.435 62.4033 127.136 61.7548 126.575 61.2685C126.001 60.7821 125.315 60.5452 124.492 60.5452C123.719 60.5452 123.058 60.7821 122.534 61.256C121.998 61.7299 121.674 62.3784 121.561 63.2264H127.448V63.214Z" fill="#29313D" fill-opacity="0.8"/>
<path d="M140.318 58.5124C141.016 58.874 141.577 59.3479 141.976 59.9341V58.1632H145.144V70.6841C145.144 71.8314 144.907 72.8665 144.446 73.7769C143.984 74.6873 143.286 75.3982 142.363 75.9344C141.44 76.4707 140.318 76.7326 138.996 76.7326C137.225 76.7326 135.778 76.321 134.656 75.4979C133.521 74.6748 132.885 73.5525 132.735 72.1308H135.853C136.015 72.7044 136.377 73.1534 136.913 73.4901C137.449 73.8268 138.123 73.9889 138.896 73.9889C139.806 73.9889 140.555 73.7146 141.116 73.1658C141.677 72.6171 141.964 71.794 141.964 70.6841V68.7511C141.565 69.3372 141.004 69.8236 140.293 70.2102C139.582 70.5968 138.771 70.7964 137.861 70.7964C136.813 70.7964 135.853 70.522 134.993 69.9857C134.12 69.4495 133.434 68.6887 132.935 67.7035C132.436 66.7183 132.187 65.5959 132.187 64.3239C132.187 63.0643 132.436 61.9544 132.935 60.9816C133.434 60.0089 134.12 59.2606 134.98 58.7368C135.841 58.2131 136.801 57.9512 137.861 57.9512C138.796 57.9636 139.607 58.1382 140.318 58.5124ZM141.527 62.4158C141.228 61.8671 140.829 61.4555 140.318 61.1562C139.806 60.8694 139.258 60.7197 138.684 60.7197C138.098 60.7197 137.562 60.8569 137.063 61.1438C136.564 61.4306 136.165 61.8421 135.865 62.3909C135.554 62.9396 135.404 63.5881 135.404 64.3363C135.404 65.0846 135.554 65.7331 135.865 66.3068C136.177 66.868 136.576 67.292 137.075 67.5913C137.574 67.8906 138.11 68.0402 138.684 68.0402C139.27 68.0402 139.819 67.8906 140.318 67.6038C140.829 67.3169 141.228 66.8929 141.527 66.3442C141.827 65.7955 141.976 65.147 141.976 64.3862C141.976 63.613 141.827 62.9645 141.527 62.4158Z" fill="#29313D" fill-opacity="0.8"/>
<path d="M148.162 60.9941C148.661 60.0213 149.347 59.2731 150.22 58.7493C151.093 58.2255 152.053 57.9636 153.113 57.9636C153.924 57.9636 154.697 58.1382 155.42 58.4874C156.156 58.8366 156.742 59.3105 157.166 59.8842V53.9854H160.359V70.5968H157.166V68.7511C156.78 69.3622 156.231 69.861 155.533 70.2351C154.834 70.6093 154.011 70.7963 153.088 70.7963C152.041 70.7963 151.081 70.522 150.22 69.9857C149.347 69.4495 148.661 68.6887 148.162 67.7035C147.663 66.7183 147.414 65.5959 147.414 64.3239C147.414 63.0767 147.663 61.9668 148.162 60.9941ZM156.742 62.4158C156.443 61.8671 156.044 61.4555 155.533 61.1562C155.021 60.8694 154.473 60.7197 153.899 60.7197C153.313 60.7197 152.777 60.8569 152.278 61.1437C151.779 61.4306 151.38 61.8421 151.081 62.3908C150.769 62.9396 150.619 63.5881 150.619 64.3363C150.619 65.0846 150.769 65.7331 151.081 66.3067C151.392 66.8679 151.791 67.292 152.29 67.5913C152.789 67.8906 153.325 68.0402 153.899 68.0402C154.485 68.0402 155.034 67.8906 155.533 67.6037C156.044 67.3169 156.443 66.8929 156.742 66.3442C157.042 65.7954 157.191 65.1469 157.191 64.3862C157.191 63.613 157.042 62.9645 156.742 62.4158Z" fill="#29313D" fill-opacity="0.8"/>
<path d="M174.912 65.3216H165.821C165.896 66.2195 166.207 66.9179 166.769 67.4292C167.317 67.9405 168.003 68.1899 168.814 68.1899C169.986 68.1899 170.809 67.6911 171.308 66.6809H174.7C174.338 67.8781 173.653 68.8633 172.63 69.6365C171.607 70.4098 170.36 70.7964 168.876 70.7964C167.679 70.7964 166.606 70.5345 165.659 69.9982C164.711 69.462 163.963 68.7137 163.439 67.7409C162.903 66.7682 162.641 65.6458 162.641 64.3738C162.641 63.0892 162.903 61.9544 163.426 60.9816C163.95 60.0089 164.686 59.2606 165.621 58.7368C166.569 58.2131 167.654 57.9512 168.876 57.9512C170.061 57.9512 171.121 58.2006 172.056 58.7119C172.992 59.2232 173.715 59.9465 174.239 60.8819C174.75 61.8172 175.012 62.8897 175.012 64.0994C174.999 64.5608 174.962 64.9599 174.912 65.3216ZM171.744 63.214C171.732 62.4033 171.433 61.7548 170.872 61.2685C170.298 60.7821 169.612 60.5452 168.789 60.5452C168.016 60.5452 167.355 60.7821 166.831 61.256C166.295 61.7299 165.97 62.3784 165.858 63.2264H171.744V63.214Z" fill="#29313D" fill-opacity="0.8"/>
</g>
<defs>
<clipPath id="clip0_179_1045">
<rect width="140" height="23.7324" fill="white" transform="translate(35 53)"/>
</clipPath>
</defs>
</svg>
